<?xml version="1.0" encoding="UTF-8"?>
<svg version="1.1" xmlns="http://www.w3.org/2000/svg" width="1788" height="344">
<path d="M0 0 C0.73734375 0.598125 1.4746875 1.19625 2.234375 1.8125 C4.12823779 3.17410709 4.12823779 3.17410709 6.11328125 2.921875 C9.12733454 1.62147907 11.88594671 -0.05375308 14.6875 -1.75 C28.1625996 -9.65591104 41.33782784 -13.40027951 56.9375 -13.3125 C58.52014648 -13.30404053 58.52014648 -13.30404053 60.13476562 -13.29541016 C83.53035 -12.93365969 105.56879775 -4.62475148 122.25 12 C123.31541016 13.03060547 123.31541016 13.03060547 124.40234375 14.08203125 C134.47317572 24.50079983 141.25 40.36395875 141.25 55 C141.97574219 55.1134375 142.70148438 55.226875 143.44921875 55.34375 C152.25702083 57.40750279 159.13333734 63.80812437 164.25 71 C169.82757017 80.40750168 172.60891226 89.12096672 172.5625 100 C172.57861328 100.75539063 172.59472656 101.51078125 172.61132812 102.2890625 C172.61608748 107.82894729 171.5530581 111.94866255 169.25 117 C165.68628439 120.47462271 162.97405944 121.83422505 158 122.3125 C153.66589162 121.9513243 150.47190801 120.98265742 147.25 118 C144.13396144 113.20500003 144.03656378 109.27490952 144.375 103.75 C144.60128864 96.55681096 143.8653355 90.85418872 139.25 85 C135.21535852 81.4327865 131.56257296 80.69213916 126.25 81 C124.20791183 81.59840429 122.18623342 82.26974215 120.1875 83 C114.83494088 84.95194977 111.75048192 85.61221022 106.25 84 C102.784392 82.0505955 100.6393959 79.76186154 98.8125 76.1875 C97.90468981 71.04324228 98.20587452 66.95206068 100.6875 62.3125 C104.41416907 58.9494084 108.69585775 57.04241112 113.25 55 C111.18084855 43.33750999 106.48221924 33.82613065 96.9375 26.5 C90.2474439 21.98321063 82.87037754 19.48974757 75.25 17 C74.44820313 16.73058594 73.64640625 16.46117188 72.8203125 16.18359375 C59.5129641 12.4813548 43.83838275 14.45529931 31.6875 20.625 C26.59179104 23.57164909 22.13203991 27.13593357 17.66015625 30.94921875 C12.96051278 34.94810501 9.64422961 37.14477501 3.25 37 C-1.88019153 35.69413307 -4.31769625 33.5651169 -7.9375 29.75 C-18.48098689 18.81535508 -32.25509395 13.93737318 -47.3125 13.5625 C-62.97468249 14.05245357 -78.15988215 18.57069233 -90.75 28 C-91.61625 28.5775 -92.4825 29.155 -93.375 29.75 C-103.96985757 39.78723349 -107.1854971 52.10616928 -107.71606445 66.23803711 C-108.04894615 71.401199 -109.14095371 74.83632661 -112.78808594 78.60375977 C-116.59315904 81.31172555 -120.91052325 81.81913965 -125.4375 82.5625 C-137.65273724 84.96830404 -147.52438883 88.25235725 -154.75 99 C-163.47772306 113.50404218 -167.98579428 130.92788936 -164.75 147.75 C-162.1906938 157.07235968 -157.83170875 165.37559359 -149.7421875 170.9140625 C-145.00224138 173.49779784 -141.34119463 174.24309423 -135.91796875 174.1953125 C-134.62568359 174.18886719 -133.33339844 174.18242187 -132.00195312 174.17578125 C-130.6471327 174.15907327 -129.29231499 174.14214342 -127.9375 174.125 C-126.56315749 174.11496003 -125.18880797 174.10583596 -123.81445312 174.09765625 C-120.45945683 174.07411242 -117.10481801 174.04122567 -113.75 174 C-109.41331767 163.18884103 -105.0804361 152.37616234 -100.75 141.5625 C-100.43024956 140.7641272 -100.11049911 139.96575439 -99.78105927 139.14318848 C-91.26888419 117.88781165 -82.78296555 96.62433221 -74.546875 75.26000977 C-71.13203764 66.41837748 -67.53498522 57.69060051 -63.75 49 C-55.83 49 -47.91 49 -39.75 49 C-35.91133579 57.18297807 -32.53996058 65.49141535 -29.30569458 73.92498779 C-27.77740394 77.90770815 -26.23673597 81.88562855 -24.6953125 85.86328125 C-24.37347488 86.6939209 -24.05163727 87.52456055 -23.720047 88.38037109 C-19.58069067 99.04149232 -15.31607938 109.65251372 -11.04760742 120.26245117 C-3.86383777 138.14258954 3.17428484 156.07485494 10.25 174 C81.53 174 152.81 174 226.25 174 C223.94 172.02 221.63 170.04 219.25 168 C216.07879709 164.21501589 215.78222049 160.93243679 215.96484375 156.14453125 C216.51754884 151.98788612 218.58906142 149.76421023 221.25 146.6875 C225.87681706 144.08491541 230.07887209 143.93363747 235.25 145 C238.4257009 146.86601403 240.72010374 149.34847411 243.25 152 C244.92794471 153.51068124 246.61586813 155.01033677 248.3125 156.5 C251.83662046 159.67439858 255.22150108 162.936568 258.5390625 166.32421875 C260.37390068 168.12135478 262.29201275 169.77583649 264.25 171.4375 C274.36700392 180.25290107 274.36700392 180.25290107 276.375 186.5 C276.22356908 190.7400659 275.65142864 194.43824803 273.25 198 C268.75093144 201.5675597 265.7905631 202.50039502 260.08243465 202.50336456 C259.38041964 202.50917833 258.67840462 202.51499209 257.95511642 202.52098203 C255.60269734 202.53558024 253.25132199 202.52169841 250.89891052 202.50793457 C249.19532442 202.51254363 247.49174229 202.51889658 245.78816849 202.52684355 C241.10646291 202.54356052 236.42508297 202.53527962 231.74337614 202.52289867 C226.69408344 202.51385972 221.6448473 202.52781251 216.5955658 202.53881836 C206.70190163 202.55662319 196.80835872 202.55275405 186.91468977 202.5411678 C178.87097855 202.53213791 170.82730134 202.53090757 162.7835865 202.53526306 C161.63915329 202.53587599 160.49472007 202.53648893 159.31560706 202.53712043 C156.99069276 202.53839934 154.66577847 202.53969619 152.34086419 202.5410108 C130.5273317 202.55242327 108.71386639 202.53929428 86.90034492 202.51780933 C68.19386484 202.4999545 49.48748412 202.50302786 30.78100586 202.52148438 C9.05691122 202.54290817 -12.66712441 202.55130693 -34.39122814 202.53903532 C-36.70977747 202.53776114 -39.0283268 202.53650366 -41.34687614 202.53526306 C-42.48761861 202.53464596 -43.62836108 202.53402886 -44.8036715 202.53339306 C-52.83172502 202.52994344 -60.85974106 202.5357605 -68.88778877 202.54518127 C-78.68052507 202.55642012 -88.47313317 202.55332225 -98.26585484 202.5320583 C-103.25986088 202.52157072 -108.25365348 202.51738668 -113.24765778 202.53065491 C-117.82557703 202.54263322 -122.4030864 202.53592705 -126.98096883 202.5147447 C-128.63107306 202.51030137 -130.28121241 202.51249343 -131.93129379 202.52224785 C-146.44808642 202.60143394 -158.22072882 200.35173598 -169.75 191 C-171.23693359 189.83791016 -171.23693359 189.83791016 -172.75390625 188.65234375 C-185.68430093 177.78917156 -192.46249687 159.28814446 -193.93017578 143.00048828 C-195.52221051 119.30256637 -187.96416509 94.04002707 -172.625 75.8125 C-162.74915377 65.38333811 -149.35307894 56.84248532 -134.75 56 C-134.74742187 55.3915625 -134.74484375 54.783125 -134.7421875 54.15625 C-133.93539697 35.86899792 -124.03120322 20.02268109 -110.94921875 7.7578125 C-82.24505188 -17.79407663 -31.44991314 -23.09097881 0 0 Z M-53.75 83 C-55.26488814 87.23061631 -56.77637429 91.46242891 -58.28491211 95.6953125 C-58.79703183 97.13085564 -59.31003053 98.56608556 -59.82397461 100.00097656 C-60.56864133 102.08053271 -61.30998776 104.1612489 -62.05078125 106.2421875 C-62.27590897 106.8686618 -62.50103668 107.49513611 -62.73298645 108.14059448 C-64.59661756 113.39165697 -66.1422855 118.64095167 -67.75 124 C-57.85 124 -47.95 124 -37.75 124 C-38.39681099 120.76594507 -38.95943761 118.14300153 -40.05688477 115.12768555 C-40.31707901 114.40731613 -40.57727325 113.68694672 -40.84535217 112.94474792 C-41.12455002 112.1830983 -41.40374786 111.42144867 -41.69140625 110.63671875 C-41.97853989 109.84473587 -42.26567352 109.05275299 -42.56150818 108.23677063 C-43.47515408 105.71911439 -44.39375159 103.20329813 -45.3125 100.6875 C-45.93457288 98.97603068 -46.55632132 97.26444339 -47.17773438 95.55273438 C-48.69806796 91.36711377 -50.22284354 87.18313579 -51.75 83 C-52.41 83 -53.07 83 -53.75 83 Z M-75.75 144 C-80.75519307 154.05651695 -83.99802483 164.28007094 -87.75 175 C-64.65 175 -41.55 175 -17.75 175 C-19.99779533 168.25661402 -22.34267694 161.63227467 -24.875 155 C-25.41447266 153.57107422 -25.41447266 153.57107422 -25.96484375 152.11328125 C-26.30902344 151.20964844 -26.65320313 150.30601562 -27.0078125 149.375 C-27.3186377 148.55773437 -27.62946289 147.74046875 -27.94970703 146.8984375 C-28.59875827 145.02560742 -28.59875827 145.02560742 -29.75 144 C-31.19289787 143.90704185 -32.64029785 143.88253487 -34.08618164 143.88647461 C-35.0070607 143.88655014 -35.92793976 143.88662567 -36.87672424 143.88670349 C-38.37827309 143.89444542 -38.37827309 143.89444542 -39.91015625 143.90234375 C-41.43956093 143.90446617 -41.43956093 143.90446617 -42.99986267 143.90663147 C-46.27077107 143.91224903 -49.54161213 143.9248045 -52.8125 143.9375 C-55.02408756 143.94251274 -57.23567618 143.94707604 -59.44726562 143.95117188 C-64.88153357 143.96222416 -70.31576197 143.97897937 -75.75 144 Z " fill="#0061A6" transform="translate(224.75,76)"/>
<path d="M0 0 C5.94 0 11.88 0 18 0 C18 61.05 18 122.1 18 185 C12.06 185 6.12 185 0 185 C-0.33 178.4 -0.66 171.8 -1 165 C-2.8253125 166.98 -2.8253125 166.98 -4.6875 169 C-18.33675233 182.56394451 -35.50286393 188.3125 -54.40307617 188.3125 C-72.92750672 188.0027328 -88.21318118 180.81167902 -101.3125 167.84765625 C-115.31984995 153.00556597 -121.56730659 135.42984153 -121.41967773 115.18041992 C-120.81122137 95.67264372 -112.85925138 79.49718095 -99 66 C-97.96166016 64.96552734 -97.96166016 64.96552734 -96.90234375 63.91015625 C-81.61381551 49.56342646 -62.87639813 47.20230296 -42.88525391 47.82519531 C-26.88457303 48.79460532 -13.87313102 57.85406641 -3 69 C-2.01 70.485 -2.01 70.485 -1 72 C-0.67 48.24 -0.34 24.48 0 0 Z M-89.93359375 82.5078125 C-98.57115438 92.92513515 -104.02922409 106.79203937 -103.31640625 120.51953125 C-101.11269918 137.79550643 -94.00401472 150.61890792 -80.6875 161.8125 C-69.02138965 170.50046598 -56.07838448 172.08645433 -42 171 C-28.45664689 168.59551164 -16.43232146 161.5125616 -8.1640625 150.5703125 C1.48618632 136.52248194 3.1775081 120.70427803 0.33984375 104.1484375 C-3.3980934 90.58830185 -12.1284015 79.11607068 -24 71.625 C-46.26446738 59.14445229 -72.64108216 64.13258551 -89.93359375 82.5078125 Z " fill="#0061A6" transform="translate(1190,93)"/>
<path d="M0 0 C6.47641732 5.50962694 13.33075499 11.63055864 18.24414062 18.59863281 C18.24414062 19.25863281 18.24414062 19.91863281 18.24414062 20.59863281 C16.19939743 22.42767333 14.16063892 24.11370747 11.99414062 25.78613281 C11.40761719 26.26244141 10.82109375 26.73875 10.21679688 27.22949219 C5.79239392 30.66461853 5.79239392 30.66461853 3.16088867 30.34790039 C0.37205496 29.25772963 -0.8281166 27.41855089 -2.69335938 25.09863281 C-15.36153269 10.55831565 -34.08066368 2.57469596 -53.10546875 0.86767578 C-76.28667471 -0.68510709 -97.26068028 6.32792666 -114.75585938 21.59863281 C-115.38234375 22.12972656 -116.00882813 22.66082031 -116.65429688 23.20800781 C-130.66303772 36.01237727 -136.85007507 55.45920344 -137.88476562 73.89550781 C-138.39110567 94.55418175 -131.60917113 113.30537109 -117.75585938 128.59863281 C-104.43604971 142.52177881 -86.07350065 151.11764618 -66.73632812 151.83691406 C-43.6489549 152.28432055 -23.1233818 147.81454533 -5.75585938 131.59863281 C-3.64623932 129.41918212 -1.55960601 127.23731786 0.45507812 124.96972656 C2.24414062 123.59863281 2.24414062 123.59863281 4.08007812 123.59863281 C7.19562942 125.03830995 9.80488073 127.06055062 12.49414062 129.16113281 C13.0484375 129.58587891 13.60273437 130.010625 14.17382812 130.44824219 C15.53503473 131.49261622 16.89019895 132.54485746 18.24414062 133.59863281 C10.81005758 149.09456592 -8.09623597 159.68382136 -23.64648438 165.27832031 C-51.0415648 174.40558523 -81.97128805 173.28543289 -108.16210938 161.00097656 C-115.39414584 157.29202328 -121.70092057 153.0115308 -127.75585938 147.59863281 C-128.57699219 146.87160156 -129.398125 146.14457031 -130.24414062 145.39550781 C-141.55164413 134.77384044 -148.81500049 122.17498727 -153.75585938 107.59863281 C-154.07167969 106.70144531 -154.3875 105.80425781 -154.71289062 104.87988281 C-162.12964192 81.20473583 -159.80827901 53.70347209 -148.75585938 31.59863281 C-136.25913597 8.70437313 -115.69953155 -7.89268853 -90.75585938 -15.40136719 C-61.53793568 -23.74484755 -24.25571121 -19.35870166 0 0 Z " fill="#0061A6" transform="translate(719.755859375,111.4013671875)"/>
<path d="M0 0 C1.2065625 0.0309375 1.2065625 0.0309375 2.4375 0.0625 C9.54721086 13.88448446 16.04851529 27.99106668 22.59082031 42.08691406 C25.24088112 47.7948713 27.90428368 53.49659572 30.56716919 59.19857788 C31.73778014 61.70558742 32.90761269 64.21295985 34.07746887 66.72032166 C36.63709486 72.20631289 39.19845013 77.69149068 41.76171875 83.17578125 C46.86161642 94.09061994 51.95320034 105.00912698 57.015625 115.94140625 C57.412052 116.7974646 57.808479 117.65352295 58.21691895 118.53552246 C59.84126383 122.04368231 61.46538514 125.55194482 63.08837891 129.06072998 C67.35955225 138.2944459 71.64296644 147.52171757 75.984375 156.72265625 C76.33923477 157.47554932 76.69409454 158.22844238 77.05970764 159.00415039 C78.72486501 162.53623625 80.39393637 166.06637057 82.07006836 169.59326172 C82.6549297 170.83163748 83.23965507 172.07007746 83.82421875 173.30859375 C84.33170654 174.37779053 84.83919434 175.4469873 85.36206055 176.54858398 C86.4375 179.0625 86.4375 179.0625 86.4375 181.0625 C79.5075 181.0625 72.5775 181.0625 65.4375 181.0625 C58.89469041 167.56996304 52.38700763 154.06203796 46.04916382 140.47180176 C45.47666047 139.24475687 44.90295799 138.01827072 44.32803345 136.7923584 C43.52230262 135.07292641 42.72197269 133.3509667 41.921875 131.62890625 C41.46522461 130.64865479 41.00857422 129.66840332 40.53808594 128.65844727 C39.4375 126.0625 39.4375 126.0625 38.4375 122.0625 C12.6975 122.0625 -13.0425 122.0625 -39.5625 122.0625 C-39.8925 123.7125 -40.2225 125.3625 -40.5625 127.0625 C-41.59432632 129.42803836 -42.66085135 131.72397125 -43.80859375 134.03125 C-44.13569839 134.70072159 -44.46280304 135.37019318 -44.79981995 136.05995178 C-45.8613671 138.23005018 -46.93069558 140.39621511 -48 142.5625 C-49.09457849 144.79593832 -50.18713944 147.03035663 -51.2796936 149.26478577 C-52.00668314 150.75107616 -52.73436361 152.23702879 -53.46273804 153.72264099 C-57.91060228 162.79748702 -62.2332772 171.93054565 -66.5625 181.0625 C-73.4925 181.0625 -80.4225 181.0625 -87.5625 181.0625 C-85.61882989 175.23148966 -83.89071019 170.34019554 -81.2265625 164.94921875 C-80.91135147 164.30635925 -80.59614044 163.66349976 -80.27137756 163.00115967 C-79.59782679 161.62828089 -78.92189614 160.25656747 -78.2437439 158.88595581 C-76.41901866 155.19596292 -74.61431711 151.49619422 -72.80859375 147.796875 C-72.44387466 147.05050278 -72.07915558 146.30413055 -71.7033844 145.53514099 C-68.46583693 138.89579791 -65.3390571 132.20984941 -62.25 125.5 C-57.03600923 114.19167037 -51.72498585 102.93208103 -46.375 91.6875 C-45.77122025 90.41820145 -45.77122025 90.41820145 -45.15524292 89.1232605 C-43.51626009 85.67785319 -41.8770596 82.23254961 -40.23747253 78.78742981 C-35.92074621 69.71643394 -31.61441562 60.64052788 -27.3125 51.5625 C-26.76018707 50.39749466 -26.76018707 50.39749466 -26.19671631 49.20895386 C-22.15586849 40.68415252 -18.13022218 32.15256255 -14.13671875 23.60546875 C-13.78419037 22.85133698 -13.43166199 22.0972052 -13.06845093 21.32022095 C-11.39818979 17.74622759 -9.73056012 14.17104539 -8.06738281 10.59375 C-7.48117805 9.3372124 -6.89491838 8.08070042 -6.30859375 6.82421875 C-5.79997803 5.73069092 -5.2913623 4.63716309 -4.76733398 3.51049805 C-3.076499 0.07503656 -3.076499 0.07503656 0 0 Z M-0.5625 41.0625 C-8.1145467 55.95551136 -15.34645239 71.00467133 -22.5625 86.0625 C-22.99643066 86.96774414 -23.43036133 87.87298828 -23.87744141 88.80566406 C-24.90289211 90.95126293 -25.92238725 93.09949529 -26.9375 95.25 C-27.46085937 96.35730469 -27.98421875 97.46460938 -28.5234375 98.60546875 C-29.69233223 100.92489168 -29.69233223 100.92489168 -29.5625 103.0625 C-10.0925 103.0625 9.3775 103.0625 29.4375 103.0625 C22.55539935 87.6977687 22.55539935 87.6977687 15.47265625 72.4296875 C15.06840927 71.574888 14.66416229 70.7200885 14.24766541 69.83938599 C13.41639355 68.08367511 12.58409994 66.32844759 11.75073242 64.57373047 C10.47182614 61.87811656 9.19976564 59.17933258 7.92773438 56.48046875 C7.10978485 54.75501398 6.2914414 53.02974589 5.47265625 51.3046875 C5.0956105 50.50279999 4.71856476 49.70091248 4.33009338 48.87472534 C3.97889938 48.13860016 3.62770538 47.40247498 3.26586914 46.64404297 C2.95992325 45.99821259 2.65397736 45.3523822 2.33876038 44.6869812 C1.42774123 42.86922309 1.42774123 42.86922309 -0.5625 41.0625 Z " fill="#0061A6" transform="translate(1376.5625,96.9375)"/>
<path d="M0 0 C1.63412842 0.01135986 1.63412842 0.01135986 3.30126953 0.02294922 C22.74889612 0.41854311 38.27265648 7.75766904 51.875 21.67578125 C64.74965522 36.63753878 68.6875 52.97758739 68.6875 72.4375 C29.4175 72.4375 -9.8525 72.4375 -50.3125 72.4375 C-46.07074056 91.52541747 -42.23122361 105.33223886 -25.875 116.375 C-13.99550942 123.30334114 -1.02181806 124.23702806 12.41796875 121.74609375 C29.74848298 116.79747619 39.31120204 107.3996776 48.6875 92.4375 C52.83048667 93.03584725 55.86944377 94.44414285 59.5 96.5 C60.47582031 97.04785156 61.45164062 97.59570312 62.45703125 98.16015625 C63.19308594 98.58167969 63.92914062 99.00320312 64.6875 99.4375 C61.77637744 111.72890636 50.49390912 123.11354168 40.2578125 129.875 C22.95660081 140.39245391 3.03346623 143.16609367 -16.8125 139.25 C-36.5147943 134.22649104 -49.689996 123.59107028 -60.12109375 106.46875 C-69.30649579 89.42650782 -71.24283673 69.1841528 -66.8125 50.375 C-62.45215504 36.79260142 -55.45250049 26.3316823 -45.3125 16.4375 C-44.72984375 15.83421875 -44.1471875 15.2309375 -43.546875 14.609375 C-32.06542052 3.59181767 -15.38046488 -0.15118884 0 0 Z M-38.3125 34.4375 C-43.42431753 41.62382211 -45.72658389 47.81777963 -48.3125 56.4375 C-16.3025 56.4375 15.7075 56.4375 48.6875 56.4375 C45.57884101 42.44853454 40.49477714 33.11580462 28.546875 25.078125 C6.18220836 12.24593923 -20.75651293 15.02494287 -38.3125 34.4375 Z " fill="#0061A6" transform="translate(1688.3125,140.5625)"/>
<path d="M0 0 C1.03769531 -0.01160156 2.07539062 -0.02320313 3.14453125 -0.03515625 C20.66242983 0.03029044 35.53403798 6.43507158 47.87890625 18.68359375 C48.74386719 19.57175781 49.60882812 20.45992187 50.5 21.375 C51.53447266 22.41333984 51.53447266 22.41333984 52.58984375 23.47265625 C65.55691345 37.29095591 70.2846679 56.17681078 69.8046875 74.6484375 C68.82808302 94.33387828 60.37969441 109.811712 46.5 123.375 C45.66082031 124.26251953 45.66082031 124.26251953 44.8046875 125.16796875 C32.47584334 137.20634276 14.08594116 140.86899274 -2.45654297 140.72924805 C-22.50956985 140.15728608 -39.06507291 132.5450018 -52.8125 118.125 C-67.54136998 100.46903958 -70.83349833 80.7129594 -69.5 58.375 C-67.44192606 41.15719583 -57.2751402 26.01290166 -44.51171875 14.734375 C-31.17041208 4.28281958 -16.86471643 -0.18854962 0 0 Z M-37.5 34.375 C-38.08910156 34.96410156 -38.67820312 35.55320312 -39.28515625 36.16015625 C-49.08311714 46.7599963 -52.13575636 60.63249001 -51.77734375 74.7109375 C-50.6898391 89.07825239 -44.64813819 101.38257102 -34.109375 111.21875 C-22.41244358 120.88447776 -9.51901169 124.34050789 5.5 123.375 C20.19466266 121.31074977 32.34131619 114.50849313 41.5390625 102.7734375 C47.09230148 94.57354845 50.7505729 85.30490904 51.5 75.375 C51.57734375 74.41980469 51.57734375 74.41980469 51.65625 73.4453125 C52.2917768 58.98707779 47.14663834 45.43751197 37.8125 34.5625 C27.58253814 23.93436597 14.65283963 17.68707314 -0.125 17.125 C-15.29903496 17.33005453 -27.00943982 23.88443982 -37.5 34.375 Z " fill="#0061A6" transform="translate(853.5,140.625)"/>
<path d="M0 0 C1.14919922 0.00161133 2.29839844 0.00322266 3.48242188 0.00488281 C12.39487265 0.13306527 19.97038574 1.27458317 28.375 4.375 C29.25414062 4.65214844 30.13328125 4.92929688 31.0390625 5.21484375 C43.54372864 9.52200653 54.10484223 18.46976334 61.375 29.375 C61.37109375 31.328125 61.37109375 31.328125 60.375 33.375 C57.72265625 35.296875 57.72265625 35.296875 54.4375 37.125 C53.35597656 37.73859375 52.27445313 38.3521875 51.16015625 38.984375 C48.375 40.375 48.375 40.375 46.375 40.375 C44.96484375 38.87109375 44.96484375 38.87109375 43.3125 36.8125 C34.1331325 26.10008349 22.04517092 19.42131511 7.91064453 18.15405273 C-8.63328126 17.39796996 -21.97795872 19.26772962 -35.625 29.375 C-36.28113281 29.83648437 -36.93726563 30.29796875 -37.61328125 30.7734375 C-46.63548952 37.69513165 -52.20240423 49.44245393 -54.625 60.375 C-56.07860362 76.73355441 -53.34283 89.91268504 -43.625 103.375 C-42.903125 104.426875 -42.18125 105.47875 -41.4375 106.5625 C-29.1046681 118.8953319 -14.67622635 122.66580271 2.14575195 122.69189453 C19.43282063 122.4510323 32.30972345 115.55628882 44.375 103.375 C45.365 101.89 45.365 101.89 46.375 100.375 C50.26506773 101.76280795 53.34058708 103.5902227 56.6875 106 C57.57050781 106.63164062 58.45351562 107.26328125 59.36328125 107.9140625 C60.02714844 108.39617187 60.69101563 108.87828125 61.375 109.375 C58.2120308 119.43397764 47.51402742 126.98658756 38.59326172 131.84545898 C19.38847309 141.72817657 -4.95682856 143.79192605 -25.625 137.375 C-43.59829346 131.25690884 -58.86274644 119.40750892 -67.625 102.375 C-76.14523894 84.17267136 -76.48514914 65.15619014 -70.62890625 46.140625 C-63.96143396 28.69907119 -50.77083717 14.30472829 -33.76806641 6.52539062 C-29.7936204 4.8863135 -25.76029313 3.54112456 -21.625 2.375 C-20.97305664 2.19098633 -20.32111328 2.00697266 -19.64941406 1.81738281 C-13.11793812 0.15563315 -6.71604883 -0.00979016 0 0 Z " fill="#0061A6" transform="translate(1545.625,140.625)"/>
<path d="M0 0 C5.94 0 11.88 0 18 0 C18.01981934 2.42118164 18.03963867 4.84236328 18.06005859 7.33691406 C18.12724711 15.37558954 18.2048809 23.41414039 18.28752708 31.45267105 C18.33727351 36.32193455 18.38360381 41.19117859 18.421875 46.06054688 C18.45900341 50.76798762 18.50543447 55.47525647 18.55806351 60.18254852 C18.5764622 61.97005927 18.59162249 63.75760665 18.60334396 65.54517365 C18.70720102 80.84924087 19.50180502 93.41034892 27.6875 106.75 C36.02336434 114.86057071 47.47868515 118.96698764 59 119 C70.31534429 118.34445109 80.51814422 115.08594919 88.5 106.75 C95.82398126 97.70541608 97.12084314 87.6995094 97.20532227 76.40258789 C97.21522186 75.57251221 97.22512146 74.74243652 97.23532104 73.88720703 C97.26670342 71.16571831 97.29160067 68.44421218 97.31640625 65.72265625 C97.33699591 63.8269355 97.35799289 61.93121913 97.37937927 60.0355072 C97.43439224 55.06256678 97.48389256 50.08958637 97.53222656 45.11657715 C97.58259391 40.03536447 97.63820022 34.95420939 97.69335938 29.87304688 C97.80068661 19.9154121 97.9017028 9.95772801 98 0 C104.27 0 110.54 0 117 0 C117.04549765 9.74594756 117.0820564 19.49182258 117.10362434 29.23785305 C117.11398486 33.76513609 117.12799949 38.29234162 117.15087891 42.81958008 C117.17288723 47.20275172 117.18462645 51.58584964 117.18975449 55.96907234 C117.19340075 57.62689433 117.20051781 59.28471309 117.21146011 60.94250298 C117.35318262 83.34017897 115.99256382 105.79466757 100.03125 123.12109375 C86.16360029 135.94866973 68.60199764 137.84210434 50.55517578 137.17480469 C36.51639692 136.21438374 23.36776755 130.57282087 13.7421875 120.1484375 C0.38059228 103.67113398 -0.31901074 83.06619822 -0.1953125 62.79296875 C-0.19157357 60.97309018 -0.18873077 59.15320957 -0.18673706 57.33332825 C-0.17916978 52.58725236 -0.15958221 47.84130259 -0.1373291 43.09527588 C-0.11672029 38.23475855 -0.10770347 33.37422048 -0.09765625 28.51367188 C-0.07632848 19.0090508 -0.04120426 9.50455571 0 0 Z " fill="#0061A6" transform="translate(937,144)"/>
<path d="M0 0 C5.94 0 11.88 0 18 0 C18 61.05 18 122.1 18 185 C12.06 185 6.12 185 0 185 C0 123.95 0 62.9 0 0 Z " fill="#0060A6" transform="translate(752,93)"/>
</svg>
